<!-- Generator: Adobe Illustrator 19.1.0, SVG Export Plug-In  -->
<svg version="1.1"
   xmlns="http://www.w3.org/2000/svg" xmlns:xlink="http://www.w3.org/1999/xlink" xmlns:a="http://ns.adobe.com/AdobeSVGViewerExtensions/3.0/"
   x="0px" y="0px" width="169px" height="169px" viewBox="0 0 169 169" style="enable-background:new 0 0 169 169;"
   xml:space="preserve">
<style type="text/css">
  .st0{fill:none;}
  .st1{fill:#FFFFFF;}
</style>
<defs>
</defs>
<rect class="st0" width="169" height="169"/>
<g>
  <g>
    <path class="st1" d="M60.8,138.6c0.7,0.1,1,0.1,1.4,0.1c21,0,42,0,63.1,0c3.5,0,4.3-0.9,4.3-4.5c0-25.4,0-50.9,0-76.3
      c0-4.1-0.6-4.6-4.6-4.6c-20.5,0-40.9,0-61.4,0c-0.9,0-1.8,0.1-2.7,0.2C60.8,81.9,60.8,110.1,60.8,138.6z M54.9,53.4
      c-8.4-0.4-15.2,4.8-15.2,12.4c-0.2,27.3-0.2,54.7,0,82c0.1,7.8,8.1,13.7,15.1,12c0-1.7,0-3.4,0-5.1c-6.1-0.5-9.5-3-9.6-7.6
      c0-1.7,0.8-3.5,1.6-5.1c1.7-3.1,4.9-3.4,8-3.5C54.9,110.1,54.9,81.8,54.9,53.4z M60.8,159.9c0.4,0.1,0.6,0.3,0.9,0.3
      c21.6,0,43.2,0,64.7,0c2.2,0,3.1-1.3,3.1-3.3c0-3,0-6.1,0-9.1c0-1.9-0.4-3.6-2.8-3.6c-2.3,0-2.9,1.6-2.9,3.6c0,2.3,0,4.5,0,7.1
      c-21.3,0-42.2,0-63.1,0C60.8,156.7,60.8,158.3,60.8,159.9z"/>
    <path class="st1" d="M60.8,138.6c0-28.4,0-56.7,0-85.1c1-0.1,1.9-0.2,2.7-0.2c20.5,0,40.9,0,61.4,0c4,0,4.6,0.6,4.6,4.6
      c0,25.4,0,50.9,0,76.3c0,3.6-0.8,4.5-4.3,4.5c-21,0-42,0-63.1,0C61.8,138.7,61.4,138.6,60.8,138.6z"/>
    <path class="st1" d="M54.9,53.4c0,28.4,0,56.7,0,85.2c-3.1,0.2-6.3,0.4-8,3.5c-0.8,1.5-1.6,3.4-1.6,5.1c0.1,4.6,3.5,7.2,9.6,7.6
      c0,1.7,0,3.4,0,5.1c-7,1.7-15.1-4.3-15.1-12c-0.2-27.3-0.2-54.7,0-82C39.7,58.2,46.5,53,54.9,53.4z"/>
    <path class="st1" d="M60.8,159.9c0-1.6,0-3.2,0-5.1c20.9,0,41.8,0,63.1,0c0-2.5,0-4.8,0-7.1c0-2,0.6-3.6,2.9-3.6
      c2.3,0,2.8,1.7,2.8,3.6c0,3,0,6.1,0,9.1c0,2.1-0.9,3.3-3.1,3.3c-21.6,0-43.2,0-64.7,0C61.4,160.2,61.1,160.1,60.8,159.9z"/>
  </g>
  <g>
    <g>
      <polygon class="st1" points="65.3,51.4 65.3,26.9 80.8,42.4 80.8,6.8 98.2,6.8 98.2,42.4 113.7,26.9 113.7,51.4 89.5,75.6      "/>
      <path d="M96.2,8.8v38.5l15.6-15.6v18.8L89.5,72.8L67.3,50.5V31.7l15.6,15.6V8.8H96.2 M100.2,4.8h-4H82.8h-4v4v28.8l-8.7-8.7
        L63.3,22v9.7v18.8v1.7l1.2,1.2l22.2,22.2l2.8,2.8l2.8-2.8l22.2-22.2l1.2-1.2v-1.7V31.7V22l-6.8,6.8l-8.7,8.7V8.8V4.8L100.2,4.8z"
        />
    </g>
  </g>
</g>
<g id="Arrow_28_copy">
</g>
</svg>
