<!-- Generator: Adobe Illustrator 19.1.0, SVG Export Plug-In  -->
<svg version="1.1"
   xmlns="http://www.w3.org/2000/svg" xmlns:xlink="http://www.w3.org/1999/xlink" xmlns:a="http://ns.adobe.com/AdobeSVGViewerExtensions/3.0/"
   x="0px" y="0px" width="50.1px" height="50.1px" viewBox="0 0 50.1 50.1" style="enable-background:new 0 0 50.1 50.1;"
   xml:space="preserve">
<style type="text/css">
  .st0{fill:#B80D02;}
</style>
<defs>
</defs>
<path class="st0" d="M7.9,1.2l41,41c1.6,1.6,1.6,4.2,0,5.8l-1,1c-1.6,1.6-4.2,1.6-5.8,0l-41-41c-1.6-1.6-1.6-4.2,0-5.8l1-1
  C3.7-0.4,6.3-0.4,7.9,1.2z"/>
<path class="st0" d="M1.2,42.2l41-41c1.6-1.6,4.2-1.6,5.8,0l1,1c1.6,1.6,1.6,4.2,0,5.8l-41,41c-1.6,1.6-4.2,1.6-5.8,0l-1-1
  C-0.4,46.4-0.4,43.8,1.2,42.2z"/>
</svg>
