<svg id="Layer_1" data-name="Layer 1" xmlns="http://www.w3.org/2000/svg" viewBox="0 0 50 50"><defs><style>.cls-1{fill:#252227;}.cls-2{fill:#d7cfc0;}</style></defs><title>tw</title><circle id="back" class="cls-1" cx="24.48" cy="25.77" r="15.02"/><path id="Facebook" class="cls-2" d="M31.79,17.56H17.18a0.91,0.91,0,0,0-.91.91V33.07a0.91,0.91,0,0,0,.91.91H25V27.62H22.9V25.14H25V23.32A3,3,0,0,1,28.23,20a17.55,17.55,0,0,1,1.91.1v2.22H28.83a1,1,0,0,0-1.23,1.21v1.58h2.45l-0.32,2.48H27.6V34h4.19a0.91,0.91,0,0,0,.91-0.91V18.47A0.91,0.91,0,0,0,31.79,17.56Z"/></svg>