<svg id="Layer_2" data-name="Layer 2" xmlns="http://www.w3.org/2000/svg" viewBox="0 0 526.25 531.75"><defs><style>.cls-1{fill:#21261b;}</style></defs><title>logo</title><path class="cls-1" d="M100.56,310.94a0.08,0.08,0,0,1,.05-0.15c1.83,0.2,9.13-1.42,9.26-10.8,0.13-10,.63-33,0.63-38.87s-7-18.88-18.87-21.5C82,237.5,40.25,229,40.25,229V363.5S89,374.23,94.63,375c6.25,0.88,15.88-2.77,15.88-9.27v-40.5C110.5,317.64,102.28,312,100.56,310.94ZM64.38,259l21.38,5v28.75l-21.37-4.37V259Zm22,87.25-22-5.12V313.88s22,4.13,22,4.5v27.88Z" transform="translate(-40.25 -192)"/><path class="cls-1" d="M202.25,278.5c0.25-7-4.62-16.12-17.08-18.47-10.48-2-28.58-6.84-34.92-8.28s-17.5,1.75-17.5,13.38V369.5s0,13.63,14,16.75,39.38,8.38,39.5,8c5.13,0.75,16.25.38,16.25-11.62S202.07,283.62,202.25,278.5ZM178.5,365L157,360V278.5l21.5,5.25V365Z" transform="translate(-40.25 -192)"/><polygon class="cls-1" points="187.13 76.75 250.5 90.75 250.5 117.25 211.13 108.75 210.88 135.63 242 142.13 241.88 167 211 160.38 210.88 188.38 250.5 197 250.5 224.5 187.13 210.75 187.13 76.75"/><path class="cls-1" d="M311.83,288l24.5,4.83V346h2l20.17-48.67,23.67,5-19.5,48.83c14.33,3.33,15,15.83,15,15.83L378,435.33l-21.5-4.5,0.17-55.67-20.17-4,0.33,55.67-25-5.17V288Z" transform="translate(-40.25 -192)"/><polygon class="cls-1" points="357.75 0 361.75 0 361 531.75 357.75 531.75 357.75 0"/><circle class="cls-1" cx="300.5" cy="315.88" r="16.81"/><path class="cls-1" d="M476.21,507.69c2.21-.73,8.79-4,8.79-16.44V454.5c0-11.62-12-12.38-19.87-10-6.59,2-46.12,15-46.12,15V590.25s46.5-14.37,53.5-16.75S485,565.63,485,553V519.5A11.23,11.23,0,0,0,476.23,508,0.18,0.18,0,0,1,476.21,507.69ZM461.75,550l-20.25,6.25V530l20.25-6.75V550Zm0-52-20.25,6.75V476.5l20.25-6V498Z" transform="translate(-40.25 -192)"/><path class="cls-1" d="M507.33,431.17V561.83s59.33-20,59.17-19.5,0-26.83,0-26.83L529.83,528V500.5L559,491.33V466.17l-29.67,10,0.5-26.67L566.5,438V411.67Z" transform="translate(-40.25 -192)"/></svg>