<svg id="Layer_2" data-name="Layer 2" xmlns="http://www.w3.org/2000/svg" viewBox="0 0 50 50"><defs><style>.cls-1{fill:#21261b;}</style></defs><title>logo</title><path class="cls-1" d="M10.15,14.74a0,0,0,0,1,0,0A0.7,0.7,0,0,0,10.82,14c0-.72,0-2.38,0-2.8A1.9,1.9,0,0,0,9.51,9.61l-3.7-.77v9.69s3.51,0.77,3.92.83a1,1,0,0,0,1.14-.67V15.77A1.44,1.44,0,0,0,10.15,14.74ZM7.55,11l1.54,0.36v2.07l-1.54-.32V11Zm1.58,6.28-1.58-.37V15s1.58,0.3,1.58.32v2Z"/><path class="cls-1" d="M17.48,12.41a1.36,1.36,0,0,0-1.23-1.33c-0.75-.14-2.06-0.49-2.51-0.6a1,1,0,0,0-1.26,1V19a1.27,1.27,0,0,0,1,1.21c1,0.23,2.84.6,2.84,0.58a0.89,0.89,0,0,0,1.17-.84C17.49,19,17.46,12.78,17.48,12.41Zm-1.71,6.23-1.55-.36V12.41l1.55,0.38v5.85Z"/><polygon class="cls-1" points="19.29 11.7 23.85 12.71 23.85 14.62 21.02 14.01 21 15.95 23.24 16.41 23.23 18.2 21.01 17.73 21 19.74 23.85 20.36 23.85 22.35 19.29 21.36 19.29 11.7"/><path class="cls-1" d="M25.37,13.09l1.76,0.35v3.83h0.14l1.45-3.51,1.7,0.36L29,17.64a1.31,1.31,0,0,1,1.08,1.14l0,4.92-1.55-.32v-4l-1.45-.29,0,4-1.8-.37V13.09Z"/><polygon class="cls-1" points="31.57 6.18 31.86 6.18 31.81 44.48 31.57 44.48 31.57 6.18"/><circle class="cls-1" cx="27.45" cy="28.93" r="1.21"/><path class="cls-1" d="M37.21,28.91a1.09,1.09,0,0,0,.63-1.18V25.08c0-.84-0.86-0.89-1.43-0.72s-3.32,1.08-3.32,1.08v9.42s3.35-1,3.85-1.21a1.35,1.35,0,0,0,.9-1.48V29.76a0.81,0.81,0,0,0-.63-0.83A0,0,0,0,1,37.21,28.91Zm-1,3-1.46.45V30.52L36.17,30V32Zm0-3.75-1.46.49v-2l1.46-.43v2Z"/><path class="cls-1" d="M39.45,23.4v9.41s4.27-1.44,4.26-1.4,0-1.93,0-1.93l-2.64.9v-2l2.1-.66V25.92L41,26.64l0-1.92,2.64-.83V22Z"/></svg>