<svg id="Layer_1" data-name="Layer 1" xmlns="http://www.w3.org/2000/svg" viewBox="0 0 50 50"><defs><style>.cls-1{fill:#252227;}.cls-2{fill:#d7cfc0;}</style></defs><title>tw</title><circle id="back" class="cls-1" cx="25" cy="25.91" r="15.19"/><path id="Twitter" class="cls-2" d="M33.51,20.63a7,7,0,0,1-2,.55A3.5,3.5,0,0,0,33,19.25a7,7,0,0,1-2.22.85,3.49,3.49,0,0,0-5.95,3.18,9.91,9.91,0,0,1-7.2-3.65,3.49,3.49,0,0,0,1.08,4.66,3.48,3.48,0,0,1-1.58-.44v0A3.49,3.49,0,0,0,20,27.33a3.5,3.5,0,0,1-1.58.06,3.5,3.5,0,0,0,3.26,2.42,7,7,0,0,1-4.34,1.49,7.1,7.1,0,0,1-.83,0,9.93,9.93,0,0,0,15.28-8.36c0-.15,0-0.3,0-0.45A7.09,7.09,0,0,0,33.51,20.63Z"/></svg>